<?xml version="1.0" encoding="utf-8"?>                <!DOCTYPE svg PUBLIC "-//W3C//DTD SVG 1.1//EN" "http://www.w3.org/Graphics/SVG/1.1/DTD/svg11.dtd">                <svg version="1.1" id="TrashIcon" xmlns="http://www.w3.org/2000/svg" xmlns:xlink="http://www.w3.org/1999/xlink" x="0px" y="0px"                width="127.559px" height="127.559px" viewBox="0 0 127.559 127.559" enable-background="new 0 0 127.559 127.559"                xml:space="preserve">           <circle id="trashBase" fill="#FFFFFF" stroke="#666" stroke-width="2" stroke-miterlimit="10" cx="63.782" cy="64.697" r="58.497"/>           <path id="trash" fill="#666" d="M49.436,28.959c-0.259,1.621-0.473,3.131-0.764,4.627c-0.05,0.255-0.389,0.552-0.659,0.65                c-1.911,0.694-3.893,1.221-5.744,2.044c-1.289,0.574-2.526,1.402-3.573,2.351c-1.808,1.64-1.749,3.612-0.02,5.34                c1.525,1.524,3.442,2.4,5.423,3.137c4.422,1.644,9.036,2.381,13.709,2.745c7.07,0.55,14.115,0.291,21.022-1.396                c2.636-0.644,5.182-1.718,7.693-2.776c1.008-0.425,1.912-1.239,2.684-2.048c1.421-1.488,1.504-3.234,0.011-4.63                c-1.267-1.184-2.795-2.168-4.358-2.933c-1.604-0.785-3.377-1.238-5.102-1.752c-0.606-0.18-0.837-0.389-0.901-1.052                c-0.135-1.382-0.427-2.749-0.666-4.185c0.087-0.004,0.31-0.062,0.511-0.019c3.667,0.794,7.286,1.767,10.519,3.739                c1.27,0.775,2.478,1.723,3.525,2.779c1.639,1.653,2.443,3.713,2.348,6.089c-0.06,1.502,0.061,3.021-0.117,4.507                c-0.221,1.844-1.214,3.363-2.469,4.721c-0.295,0.319-0.571,0.772-0.614,1.188c-0.981,9.404-1.929,18.812-2.883,28.22                c-0.401,3.956-0.766,7.915-1.215,11.865c-0.254,2.233-1.439,3.999-3.125,5.432c-2.588,2.201-5.675,3.376-8.926,4.108                c-9.212,2.076-18.362,1.996-27.375-1.067c-2.395-0.814-4.577-2.032-6.334-3.911c-1.375-1.471-2.103-3.203-2.303-5.211                c-0.84-8.445-1.715-16.886-2.578-25.329c-0.479-4.687-0.95-9.374-1.459-14.057c-0.046-0.42-0.261-0.898-0.552-1.203                c-1.796-1.882-2.76-4.07-2.654-6.698c0.024-0.601,0.042-1.206,0-1.805c-0.257-3.692,1.365-6.456,4.256-8.563                C40.562,31.087,44.988,29.884,49.436,28.959z M66.41,77.207c0-5.246,0.018-10.493-0.026-15.739                c-0.005-0.582-0.204-1.327-0.594-1.707c-0.923-0.899-2.128-0.862-3.287-0.45c-1.088,0.386-1.322,1.293-1.321,2.341                c0.008,10.359,0.002,20.718,0.007,31.077c0.001,1.8,0.995,2.88,2.613,2.886c1.618,0.006,2.606-1.073,2.607-2.869                C66.414,87.566,66.412,82.387,66.41,77.207z M75.745,90.639c-0.112,0.909-0.064,1.777,0.831,2.293                c0.935,0.539,1.878,0.355,2.757-0.171c1.056-0.631,1.543-1.644,1.693-2.817c0.17-1.324,0.281-2.655,0.419-3.983                c0.57-5.478,1.14-10.956,1.71-16.434c0.383-3.685,0.791-7.368,1.136-11.057c0.155-1.664-0.816-2.43-2.429-2.031                c-1.767,0.436-2.859,1.949-3.054,4.114c-0.271,2.992-0.579,5.98-0.885,8.969C77.201,76.561,76.471,83.6,75.745,90.639z                M52.007,90.936c-0.192-1.902-0.363-3.629-0.541-5.356c-0.573-5.578-1.147-11.155-1.723-16.732                c-0.316-3.054-0.607-6.111-0.971-9.159c-0.171-1.43-1.019-2.453-2.321-3.049c-1.613-0.738-3.28-0.214-3.015,2.115                c0.651,5.703,1.218,11.416,1.813,17.125c0.488,4.681,0.956,9.363,1.458,14.042c0.153,1.421,0.818,2.554,2.202,3.098                C50.631,93.697,52.334,92.782,52.007,90.936z M63.768,26.275c-1.404,0-2.808-0.025-4.211,0.005                c-3.931,0.084-7.013,2.971-7.257,6.878c-0.11,1.765-0.097,3.545,0.002,5.31c0.028,0.498,0.446,1.153,0.879,1.414                c1.187,0.715,2.488,0.677,3.736,0.052c0.649-0.325,0.971-0.853,0.954-1.619c-0.034-1.503-0.029-3.008-0.008-4.511                c0.017-1.256,0.665-1.92,1.927-1.931c2.64-0.024,5.281-0.027,7.92-0.003c1.425,0.013,2.065,0.694,2.074,2.119                c0.009,1.437-0.039,2.876,0.024,4.31c0.02,0.455,0.196,1.016,0.504,1.326c1.014,1.02,3.528,1.012,4.542-0.002                c0.292-0.292,0.485-0.808,0.499-1.229c0.055-1.636,0.05-3.275,0.01-4.912c-0.088-3.611-2.705-6.639-6.293-7.062                c-1.744-0.206-3.533-0.036-5.302-0.036C63.768,26.348,63.768,26.312,63.768,26.275z"/>            </svg>