<?xml version="1.0" encoding="utf-8"?>                    <svg version="1.1" id="Icon" xmlns="http://www.w3.org/2000/svg" xmlns:xlink="http://www.w3.org/1999/xlink" x="0px" y="0px"	                     width="50px" height="50px" viewBox="0 0 50 50" enable-background="new 0 0 50 50" xml:space="preserve">                    <path id="CircleInside" fill="#FFFFFF" d="M45.601,24.743c0,11.73-9.312,21.239-20.799,21.239S4.003,36.473,4.003,24.743	                    S13.315,3.504,24.802,3.504S45.601,13.013,45.601,24.743z"/>                    <path id="CircleOutside" fill="#626363" d="M24.802,46.723c-11.869,0-21.525-9.86-21.525-21.98c0-12.119,9.656-21.979,21.525-21.979	                    s21.525,9.86,21.525,21.979C46.327,36.863,36.671,46.723,24.802,46.723z M24.802,4.245c-11.069,0-20.074,9.196-20.074,20.498	                    c0,11.303,9.005,20.499,20.074,20.499s20.074-9.196,20.074-20.499C44.876,13.44,35.871,4.245,24.802,4.245z"/>                    <path id="ArrowBody2" fill="#626363" d="M14.412,19.465l-2.619-1.2c2.243-5.103,7.212-8.345,12.659-8.261	                    c5.269,0.082,10.076,3.324,12.245,8.261l-2.619,1.2c-1.714-3.902-5.51-6.466-9.669-6.53C20.109,12.868,16.185,15.431,14.412,19.465z	                    "/>                    <path id="ArrowHead2" fill="#626363" d="M28.869,17.792l6.11,0.368l4.103-4.638l-1.26,11.73L28.869,17.792z"/>                    <path id="ArrowBody1" fill="#626363" d="M35.458,30.173l2.619,1.2c-2.243,5.103-7.212,8.345-12.659,8.261	                    c-5.269-0.082-10.076-3.324-12.245-8.261l2.619-1.2c1.714,3.902,5.51,6.466,9.669,6.53C29.761,36.769,33.685,34.206,35.458,30.173z"	                    />                    <path id="ArrowHead1" fill="#626363" d="M21.001,31.846l-6.11-0.368l-4.103,4.638l1.26-11.73L21.001,31.846z"/>                    </svg>