<?xml version="1.0" encoding="utf-8"?>                <!DOCTYPE svg PUBLIC "-//W3C//DTD SVG 1.1//EN" "http://www.w3.org/Graphics/SVG/1.1/DTD/svg11.dtd">                <svg version="1.1" id="ArrowsIcon" xmlns="http://www.w3.org/2000/svg" xmlns:xlink="http://www.w3.org/1999/xlink" x="0px" y="0px"                width="127.559px" height="127.559px" viewBox="0 0 127.559 127.559" enable-background="new 0 0 127.559 127.559"                xml:space="preserve">                <circle id="arrowsBase" fill="#FFFFFF" stroke="#666" stroke-width="2" stroke-miterlimit="10" cx="63.782" cy="64.697" r="58.497"/>                <path fill="#666" d="M61.95,55.024l-11.102-9.67c-1.21-1.054-1.265-2.916-0.118-4.039l3.448-3.377                  c1.513-1.481,0.854-4.045-1.185-4.614L25.822,25.74l7.015,27.325c0.527,2.051,3.076,2.762,4.588,1.281l3.448-3.377                  c1.146-1.123,3.007-1.03,4.036,0.202l9.437,11.3c1.029,1.232,2.889,1.325,4.036,0.202l3.687-3.611                  C63.215,57.94,63.161,56.078,61.95,55.024z"/>                <path fill="#666" d="M101.834,103.353l-7.015-27.325c-0.527-2.051-3.076-2.762-4.588-1.281l-3.448,3.377                  c-1.147,1.123-3.007,1.03-4.036-0.202l-9.437-11.3c-1.029-1.232-2.889-1.325-4.036-0.202l-3.687,3.611                  c-1.146,1.123-1.092,2.985,0.118,4.039l11.102,9.67c1.21,1.054,1.265,2.916,0.118,4.039l-3.448,3.377                  c-1.513,1.481-0.854,4.045,1.185,4.614L101.834,103.353z"/>                </svg>